# xmcd CD database file
#
# Track frame offsets:
#	182
#	28345
#	52130
#	76580
#	98265
#	111312
#	132250
#	145502
#	173312
#	200777
#	222245
#	241895
#
# Disc length: 3518 seconds
#
# Revision: 0
# Processed by: cddbd v1.4PL0 Copyright (c) Steve Scherf et al.
# Submitted via: CDex 1.50
#
DISCID=9c0dbc0c
DTITLE=Various Artist - On The Road Again - Jazz
DYEAR=1900
DGENRE=Jazz
TTITLE0=Torcuato Mariano - Numa Noite de Verão
TTITLE1=Cezer Machado - Aruba
TTITLE2=Nossa Bossa - Terço
TTITLE3=Rildo Hora e Romero Lubambo - Ligia
TTITLE4=PaulinhoTrumpete - Pro Mulato
TTITLE5=Idriss Bodrioua - Sternamente
TTITLE6=Alemão - Perna Pra Pirapora
TTITLE7=Marinho Boffa - Na Barra
TTITLE8=Chiquinho Do Acordeom - Sax Em Branco E Preto
TTITLE9=Gilson Peranzetta - As Rosas Não Falam
TTITLE10=Aquarela Carioca - Rua Japeri
TTITLE11=Tulio Mourão - A Caçada
EXTD=
EXTT0=
EXTT1=
EXTT2=
EXTT3=
EXTT4=
EXTT5=
EXTT6=
EXTT7=
EXTT8=
EXTT9=
EXTT10=
EXTT11=
PLAYORDER=
